<?xml version="1.0" encoding="UTF-8"?> <svg xmlns="http://www.w3.org/2000/svg" xmlns:xlink="http://www.w3.org/1999/xlink" viewBox="0 0 450 300"><defs><style>.a{fill:url(#a);}.b{fill:#fff;}</style><linearGradient id="a" x1="1116.35" y1="1430.23" x2="1116.35" y2="1431.52" gradientTransform="translate(-98222.59 -126832.95) scale(88.07 88.75)" gradientUnits="userSpaceOnUse"><stop offset="0" stop-color="#00c6ff"></stop><stop offset="1" stop-color="#0068ff"></stop></linearGradient></defs><title>company logos</title><path class="a" d="M53.54,191.46v22.93L75,202.2a68.29,68.29,0,0,0,18.91,2.65c35.3,0,63.91-26.69,63.91-59.62S129.2,85.61,93.9,85.61,30,112.3,30,145.23C30,163.88,39.18,180.52,53.54,191.46Z"></path><path class="b" d="M87.08,128.9,52.62,165.39,84,148.18l16.39,17.21,34.27-36.49-31,16.91Z"></path><path d="M306.8,120.39a11.38,11.38,0,0,0-5,1.34v15.36a33.79,33.79,0,0,0,3.59.13c4.87,0,5.54-2.23,5.54-5.35v-7.33C311,122.24,310.19,120.39,306.8,120.39Zm-32.38-.84c-3.38,0-4.15,1.86-4.15,4.16V125h8.31v-1.29C278.57,121.41,277.8,119.55,274.42,119.55Zm-62.72,16c0,1.82.86,2.77,2.75,2.77a10.07,10.07,0,0,0,4.72-1.35v-3.64h-4.44C212.63,133.31,211.7,133.7,211.7,135.53Zm126.6-15.14c-3.39,0-4.57,1.85-4.57,4.15v8.4c0,2.31,1.18,4.16,4.57,4.16s4.56-1.85,4.56-4.16v-8.4C342.86,122.24,341.68,120.39,338.3,120.39ZM195.1,145h-10v-24.1h-5v-8.31h5v-5c0-6.78,2.81-10.81,10.79-10.81h6.65v8.31h-4.16c-3.1,0-3.31,1.16-3.31,3.33v4.16h7.53l-.89,8.31H195.1Zm34,.06h-8.3l-.36-2.1a19,19,0,0,1-9.41,2.44c-6.09,0-9.33-4.06-9.33-9.69,0-6.63,3.79-9,10.55-9h6.88v-1.44c0-3.38-.38-4.38-5.59-4.38h-8.52l.83-8.3h9.31c11.43,0,13.94,3.61,13.94,12.75Zm28.23-23.56c-5.17-.88-6.65-1.07-9.14-1.07-4.46,0-5.81,1-5.81,4.77v7.17c0,3.79,1.35,4.78,5.81,4.78,2.49,0,4-.19,9.14-1.08v8.1a44.37,44.37,0,0,1-10,1.28c-10.69,0-14.94-5.62-14.94-13.75v-5.82c0-8.13,4.25-13.76,14.94-13.76a43.92,43.92,0,0,1,10,1.29Zm31.16,10.2H270.27v.67c0,3.79,1.35,4.78,5.81,4.78A57.88,57.88,0,0,0,287.7,136v8.1a52.55,52.55,0,0,1-12.44,1.28c-10.7,0-14.95-5.62-14.95-13.75V125c0-7.11,3.16-12.93,14.11-12.93s14.11,5.75,14.11,12.93Zm32.38.16c0,7.85-2.24,13.57-15.84,13.57a75.53,75.53,0,0,1-13.21-1.26V99.24l10-1.66v15.69a22.85,22.85,0,0,1,7.47-1.2c10,0,11.62,4.46,11.62,11.64v8.1Zm31.92.17c0,6.77-2.8,13.34-14.5,13.34s-14.55-6.57-14.55-13.34v-6.54c0-6.78,2.84-13.35,14.55-13.35s14.5,6.57,14.5,13.35Zm31.89,0c0,6.77-2.8,13.34-14.5,13.34s-14.55-6.57-14.55-13.34v-6.54c0-6.78,2.85-13.35,14.55-13.35s14.5,6.57,14.5,13.35Zm32.73,13H406.66l-9.13-15.23V145h-10V99.24l10-1.66V127l9.13-14.46h10.79l-10,15.79Zm-47.26-24.56c-3.38,0-4.56,1.85-4.56,4.15v8.4c0,2.31,1.18,4.16,4.56,4.16s4.57-1.85,4.57-4.16v-8.4C374.76,122.24,373.57,120.39,370.19,120.39Z"></path><path d="M183.64,156.94h3l14.31,33.76h.1l14.15-33.76h3.47V193.2h-2.5V159.44h-.1L202.11,193.2h-2.26l-14.1-33.76h.39V193.2h-2.5Z"></path><path d="M224.91,180.7v-.11a15.35,15.35,0,0,0,.78,4.41,11.31,11.31,0,0,0,1.9,3.69,8.91,8.91,0,0,0,3.08,2.52,9.41,9.41,0,0,0,4.26.92,9,9,0,0,0,6.28-2,10.45,10.45,0,0,0,3.2-5.68h2a13.47,13.47,0,0,1-3.77,7,11.43,11.43,0,0,1-7.67,2.42,11.61,11.61,0,0,1-5.1-1.07,10.42,10.42,0,0,1-3.64-2.88A12.25,12.25,0,0,1,224,185.6a19.24,19.24,0,0,1-.72-5.36,18.62,18.62,0,0,1,.75-5.31,13.26,13.26,0,0,1,2.23-4.46,11.06,11.06,0,0,1,3.72-3.08,12.42,12.42,0,0,1,10.15-.13,10.34,10.34,0,0,1,3.56,2.8,12.22,12.22,0,0,1,2.18,4.1,16.21,16.21,0,0,1,.75,5c0,.17,0,.57,0,.79s0,.75,0,.75Zm19.7-2.5a14.88,14.88,0,0,0-.72-3.88,9.78,9.78,0,0,0-1.82-3.29,9,9,0,0,0-2.93-2.28,8.61,8.61,0,0,0-3.94-.84,9.2,9.2,0,0,0-4.16.91,10.16,10.16,0,0,0-4.93,5.57,15.35,15.35,0,0,0-.83,3.81Z"></path><path d="M252.05,184.45a7.76,7.76,0,0,0,5.38,7.17,10.58,10.58,0,0,0,3.34.51,18.08,18.08,0,0,0,2.74-.23,9.49,9.49,0,0,0,2.72-.85,5.65,5.65,0,0,0,2.07-1.71,4.56,4.56,0,0,0,.82-2.8,4.11,4.11,0,0,0-1.33-3.33,9.37,9.37,0,0,0-3.36-1.74,32.88,32.88,0,0,0-4.36-1,23.2,23.2,0,0,1-4.36-1.16,8.86,8.86,0,0,1-3.36-2.18,6.82,6.82,0,0,1-.46-7.38,6.53,6.53,0,0,1,2.23-2.08,10.24,10.24,0,0,1,3.05-1.1,17.72,17.72,0,0,1,3.39-.34,15.25,15.25,0,0,1,3.84.47,8.19,8.19,0,0,1,3.1,1.48,6.76,6.76,0,0,1,2.05,2.52,9.29,9.29,0,0,1,.75,3.74h-1.95a6.68,6.68,0,0,0-.59-3,5.14,5.14,0,0,0-1.64-2,7,7,0,0,0-2.49-1.15,11.63,11.63,0,0,0-3.07-.38,14.71,14.71,0,0,0-2.7.27,7.8,7.8,0,0,0-2.43.87,5.42,5.42,0,0,0-1.77,1.59,4.53,4.53,0,0,0,.08,4.93,5.4,5.4,0,0,0,2,1.56,14.35,14.35,0,0,0,2.82,1l3.15.72c1.3.24,2.52.52,3.67.84a10.27,10.27,0,0,1,3,1.34,6.06,6.06,0,0,1,2,2.17,7.1,7.1,0,0,1,.72,3.39,6,6,0,0,1-1,3.54,7.63,7.63,0,0,1-2.46,2.23,10.67,10.67,0,0,1-3.31,1.18,19.9,19.9,0,0,1-3.56.33,14.27,14.27,0,0,1-4.18-.59,9.39,9.39,0,0,1-3.36-1.8,8.52,8.52,0,0,1-2.26-2.94,11.36,11.36,0,0,1-.87-4.05h2Z"></path><path d="M276.71,184.45a7.76,7.76,0,0,0,5.38,7.17,10.58,10.58,0,0,0,3.34.51,18.08,18.08,0,0,0,2.74-.23,9.49,9.49,0,0,0,2.72-.85,5.65,5.65,0,0,0,2.07-1.71,4.56,4.56,0,0,0,.82-2.8,4.11,4.11,0,0,0-1.33-3.33,9.37,9.37,0,0,0-3.36-1.74,32.88,32.88,0,0,0-4.36-1,22.89,22.89,0,0,1-4.35-1.16,8.78,8.78,0,0,1-3.36-2.18,6.8,6.8,0,0,1-.47-7.38,6.53,6.53,0,0,1,2.23-2.08,10.24,10.24,0,0,1,3.05-1.1,17.72,17.72,0,0,1,3.39-.34,15.19,15.19,0,0,1,3.84.47,8.24,8.24,0,0,1,3.11,1.48,6.85,6.85,0,0,1,2.05,2.52,9.28,9.28,0,0,1,.74,3.74H293a6.68,6.68,0,0,0-.59-3,5.23,5.23,0,0,0-1.64-2,7,7,0,0,0-2.49-1.15,11.71,11.71,0,0,0-3.08-.37,14.58,14.58,0,0,0-2.69.26,7.62,7.62,0,0,0-2.43.87,5.45,5.45,0,0,0-1.77,1.6,4,4,0,0,0-.7,2.35,4.05,4.05,0,0,0,.77,2.57,5.52,5.52,0,0,0,2,1.56,13.32,13.32,0,0,0,2.82,1l3.15.72c1.3.24,2.52.52,3.67.84a10.39,10.39,0,0,1,3,1.34,5.9,5.9,0,0,1,2,2.18,7.05,7.05,0,0,1,.72,3.38,6,6,0,0,1-1,3.54,7.63,7.63,0,0,1-2.46,2.23,10.51,10.51,0,0,1-3.31,1.18,20,20,0,0,1-3.56.33,14.27,14.27,0,0,1-4.18-.59,9.35,9.35,0,0,1-3.36-1.79,8.65,8.65,0,0,1-2.26-2.95,10.9,10.9,0,0,1-.87-4Z"></path><path d="M301.19,180.7v-.11a15.61,15.61,0,0,0,.61,4.41,11,11,0,0,0,1.82,3.69,8.64,8.64,0,0,0,3,2.52,9.32,9.32,0,0,0,4.24.92,9,9,0,0,0,6.27-2,10.5,10.5,0,0,0,3.19-5.68h1.94a13.4,13.4,0,0,1-3.77,7,11.41,11.41,0,0,1-7.66,2.42,11.61,11.61,0,0,1-5.1-1.07,10.33,10.33,0,0,1-3.64-2.88,12.09,12.09,0,0,1-2.18-4.31,19.24,19.24,0,0,1-.72-5.36,19,19,0,0,1,.74-5.31,13.44,13.44,0,0,1,2.23-4.46,11.15,11.15,0,0,1,3.72-3.08,11.3,11.3,0,0,1,5.26-1.15,11.16,11.16,0,0,1,4.89,1,10.37,10.37,0,0,1,3.57,2.8,12.4,12.4,0,0,1,2.18,4.1,16.52,16.52,0,0,1,.74,5c0,.17,0,.57,0,.79s0,.75,0,.75Zm19.36-2.5a15.76,15.76,0,0,0-.72-3.88A9.78,9.78,0,0,0,318,171a9,9,0,0,0-2.94-2.28,8.54,8.54,0,0,0-3.93-.84,9.17,9.17,0,0,0-4.16.91,9.46,9.46,0,0,0-3,2.36,9.72,9.72,0,0,0-1.9,3.21,15.78,15.78,0,0,0-.82,3.81Z"></path><path d="M327.46,166.94h1.25v5h.4c.35,0,.83-1.59,1.46-2.36a10,10,0,0,1,4.95-3,11.44,11.44,0,0,1,3-.38,12.09,12.09,0,0,1,3.92.58,7.62,7.62,0,0,1,2.64,1.5,7.32,7.32,0,0,1,1.62,2.08,9.67,9.67,0,0,1,.84,2.34,13.52,13.52,0,0,1,.08,2.28c0,.73-.19,1.38-.19,1.92v16.3h-1.25V176.54c0-.65-.16-1.47-.27-2.46a7.58,7.58,0,0,0-.95-2.84,6.63,6.63,0,0,0-2.29-2.34,7.78,7.78,0,0,0-4.19-1,9.33,9.33,0,0,0-4,.82,8.75,8.75,0,0,0-3,2.28,10.48,10.48,0,0,0-2,3.49,14.52,14.52,0,0,0-.79,4.43V193.2h-1.25Z"></path><path d="M375,166.94v24.88a17.33,17.33,0,0,1-.3,4.28,9.38,9.38,0,0,1-1.65,3.67,8.44,8.44,0,0,1-3.4,2.54,14.08,14.08,0,0,1-5.55.95,16.93,16.93,0,0,1-3.92-.44,9.48,9.48,0,0,1-3.22-1.38,8,8,0,0,1-2.22-2.82,7.3,7.3,0,0,1-.94-4.17h1.94a8.25,8.25,0,0,0,.88,3.28,6.64,6.64,0,0,0,1.87,2.17,8,8,0,0,0,2.59,1.23,12.52,12.52,0,0,0,3.07.4,11.19,11.19,0,0,0,4.54-.8,7.94,7.94,0,0,0,4.51-5.09,13,13,0,0,0,.55-3.36V185.7h-.36a8.75,8.75,0,0,1-3.76,4.73,10.5,10.5,0,0,1-5.76,1.67,11.85,11.85,0,0,1-5-.93,9.68,9.68,0,0,1-3.53-2.74,11.85,11.85,0,0,1-2.1-4.11,18.11,18.11,0,0,1-.69-5.12,16.34,16.34,0,0,1,.75-5,12.22,12.22,0,0,1,2.18-4.12,10.41,10.41,0,0,1,3.56-2.82,10.93,10.93,0,0,1,4.9-1,10.79,10.79,0,0,1,5.76,1.39,12.46,12.46,0,0,1,3.77,4.31h.32v-5Zm-11.1,1a8.52,8.52,0,0,0-4.18,1,8.86,8.86,0,0,0-2.93,2.57,11.74,11.74,0,0,0-1.74,3.61,14.83,14.83,0,0,0-.59,4.13,16,16,0,0,0,.59,4.38,10.25,10.25,0,0,0,1.8,3.62,8.55,8.55,0,0,0,3,2.43,8.88,8.88,0,0,0,4.08.9,9,9,0,0,0,4.2-.92,8.7,8.7,0,0,0,3-2.51,11,11,0,0,0,1.79-3.62,15.46,15.46,0,0,0,0-8.53,10.67,10.67,0,0,0-1.79-3.62,8.86,8.86,0,0,0-3-2.49A9.15,9.15,0,0,0,363.88,167.93Z"></path><path d="M382.48,180.7v-.11a15.62,15.62,0,0,0,.34,4.41,10.78,10.78,0,0,0,1.69,3.69,8.41,8.41,0,0,0,3,2.52,9.22,9.22,0,0,0,4.21.92,8.92,8.92,0,0,0,6.25-2,10.42,10.42,0,0,0,3.17-5.68h1.95a13.47,13.47,0,0,1-3.77,7,11.41,11.41,0,0,1-7.66,2.42,11.61,11.61,0,0,1-5.1-1.07,10.33,10.33,0,0,1-3.64-2.88,12.09,12.09,0,0,1-2.18-4.31,19.24,19.24,0,0,1-.72-5.36,19,19,0,0,1,.74-5.31,13.44,13.44,0,0,1,2.23-4.46,11.06,11.06,0,0,1,3.72-3.08,12.42,12.42,0,0,1,10.15-.13,10.37,10.37,0,0,1,3.57,2.8,12.59,12.59,0,0,1,2.18,4.1,16.52,16.52,0,0,1,.74,5c0,.17,0,.57,0,.79s0,.75,0,.75Zm18.83-2.5a15.76,15.76,0,0,0-.72-3.88,9.63,9.63,0,0,0-1.83-3.29,8.89,8.89,0,0,0-2.93-2.28,8.6,8.6,0,0,0-3.93-.84,9.21,9.21,0,0,0-4.17.91,9.32,9.32,0,0,0-3,2.36,9.55,9.55,0,0,0-1.9,3.21,15.32,15.32,0,0,0-.82,3.81Z"></path><path d="M410,173.19h-.08a5.18,5.18,0,0,1,1.31-2.65,9.44,9.44,0,0,1,2.31-2.08,11.53,11.53,0,0,1,3-1.31,11.74,11.74,0,0,1,3.45-.45v2a8.63,8.63,0,0,0-3.5.31,8.43,8.43,0,0,0-3.76,2.25,17.55,17.55,0,0,0-1.26,1.49,7.24,7.24,0,0,0-.89,1.59,9.64,9.64,0,0,0-.45,2,14.07,14.07,0,0,0-.14,2.56v14.4h-2.51V166.94H410Z"></path></svg> 