<?xml version="1.0" encoding="utf-8"?>
<!-- Generator: Adobe Illustrator 15.1.0, SVG Export Plug-In . SVG Version: 6.00 Build 0)  -->
<!DOCTYPE svg PUBLIC "-//W3C//DTD SVG 1.1//EN" "http://www.w3.org/Graphics/SVG/1.1/DTD/svg11.dtd">
<svg version="1.1" id="Layer_1" xmlns="http://www.w3.org/2000/svg" xmlns:xlink="http://www.w3.org/1999/xlink" x="0px" y="0px"
	 width="405.66px" height="316.98px" viewBox="0 0 405.66 316.98" enable-background="new 0 0 405.66 316.98" xml:space="preserve">
<rect x="0" y="-0.944" fill="#234242" width="406.604" height="317.924"/>
<g>
	<path fill="#FFFFFF" d="M112.956,205.125c5.28-17.05,11.401-33.26,16.998-49.994c-37.096-64.878,8.812-137.915,70.99-143.981
		c58.707-5.729,106.841,36.438,106.987,93.988c0.153,60.723-58.74,111.713-124.985,90.987c-4.996-1.562-11.18-6.657-16.997-6.999
		c-8.132-0.479-18.787,5.359-26.997,7.999C129.953,200.02,122.128,202.921,112.956,205.125z M167.949,171.129
		c53.494,32.466,117.551-3.948,122.984-56.993c4.918-48.019-33.424-90.744-84.99-86.988c-58.869,4.287-94.231,74.559-57.992,125.983
		c-3.208,8.791-6.21,17.788-8.999,26.997C148.774,177.284,157.828,173.673,167.949,171.129z"/>
	<linearGradient id="SVGID_1_" gradientUnits="userSpaceOnUse" x1="212.3274" y1="183.4011" x2="212.3274" y2="26.9172">
		<stop  offset="0" style="stop-color:#64D840"/>
		<stop  offset="0.5031" style="stop-color:#12A100"/>
		<stop  offset="1" style="stop-color:#64D840"/>
	</linearGradient>
	<path fill="url(#SVGID_1_)" d="M138.953,180.128c2.789-9.209,5.791-18.206,8.999-26.997
		c-36.24-51.425-0.877-121.696,57.992-125.983c51.566-3.756,89.908,38.97,84.99,86.988c-5.434,53.044-69.49,89.458-122.984,56.993
		C157.828,173.673,148.774,177.284,138.953,180.128z M165.95,95.139c8.577,24.126,44.126,56.803,69.99,57.992
		c12.261,0.564,26.755-5.796,25.996-22.997c-7.382-5.282-15.892-9.438-24.996-12.997c-4.357,4.307-7.782,9.548-12.999,12.997
		c-15.685-6.979-27.717-17.609-34.995-32.995c14.331-7.816,5.628-25.227,0-36.996C166.714,53.444,160.86,80.824,165.95,95.139z"/>
	<path fill="#FFFFFF" d="M188.947,60.143c5.628,11.77,14.331,29.179,0,36.996c7.278,15.386,19.312,26.017,34.995,32.995
		c5.217-3.449,8.642-8.69,12.999-12.998c9.104,3.562,17.614,7.716,24.996,12.998c0.759,17.201-13.735,23.562-25.996,22.997
		c-25.864-1.189-61.414-33.866-69.99-57.992C160.86,80.824,166.714,53.444,188.947,60.143z"/>
</g>
<g>
	<path fill="#FFFFFF" d="M41.521,290.506l-12.18-51.018h10.544l7.691,35.044l9.327-35.044h12.25l8.945,35.637l7.83-35.637h10.371
		l-12.39,51.018H72.982l-10.163-38.142l-10.127,38.142H41.521z"/>
	<path fill="#FFFFFF" d="M110.514,239.488v18.758c3.155-3.689,6.925-5.533,11.31-5.533c2.25,0,4.28,0.416,6.091,1.251
		c1.809,0.836,3.171,1.903,4.089,3.202c0.916,1.3,1.542,2.738,1.879,4.315c0.336,1.579,0.504,4.026,0.504,7.344v21.681h-9.779
		v-19.522c0-3.874-0.186-6.334-0.557-7.378s-1.025-1.873-1.965-2.488c-0.939-0.614-2.118-0.923-3.533-0.923
		c-1.624,0-3.074,0.396-4.35,1.184c-1.275,0.788-2.21,1.979-2.801,3.567c-0.592,1.59-0.887,3.938-0.887,7.047v18.514h-9.78v-51.018
		H110.514L110.514,239.488z"/>
	<path fill="#FFFFFF" d="M150.901,264.823l-8.873-1.601c0.997-3.572,2.714-6.218,5.15-7.936c2.436-1.717,6.054-2.574,10.857-2.574
		c4.363,0,7.61,0.516,9.745,1.547c2.134,1.033,3.637,2.345,4.506,3.933c0.87,1.59,1.305,4.508,1.305,8.754l-0.104,11.414
		c0,3.248,0.156,5.644,0.47,7.188c0.313,1.544,0.898,3.195,1.757,4.958h-9.674c-0.256-0.648-0.57-1.611-0.94-2.887
		c-0.163-0.581-0.278-0.964-0.348-1.149c-1.67,1.624-3.457,2.842-5.359,3.654s-3.933,1.218-6.091,1.218
		c-3.805,0-6.803-1.032-8.996-3.098c-2.192-2.064-3.289-4.675-3.289-7.83c0-2.089,0.498-3.95,1.496-5.586
		c0.998-1.636,2.396-2.889,4.193-3.759c1.797-0.869,4.39-1.629,7.778-2.278c4.571-0.859,7.737-1.66,9.5-2.402v-0.973
		c0-1.88-0.464-3.221-1.392-4.021c-0.929-0.801-2.681-1.201-5.255-1.201c-1.74,0-3.097,0.343-4.072,1.027
		C152.294,261.906,151.505,263.106,150.901,264.823z M163.987,272.758c-1.253,0.418-3.237,0.916-5.952,1.497
		c-2.714,0.58-4.488,1.147-5.324,1.705c-1.276,0.904-1.915,2.053-1.915,3.444c0,1.369,0.511,2.553,1.533,3.55
		c1.02,0.998,2.318,1.498,3.897,1.498c1.762,0,3.445-0.581,5.045-1.74c1.183-0.882,1.96-1.961,2.332-3.236
		c0.255-0.835,0.383-2.423,0.383-4.768V272.758z"/>
	<path fill="#FFFFFF" d="M199.466,253.548v7.797h-6.681v14.894c0,3.018,0.063,4.774,0.191,5.273c0.127,0.499,0.417,0.91,0.87,1.236
		c0.453,0.323,1.003,0.486,1.653,0.486c0.905,0,2.215-0.313,3.932-0.938l0.835,7.585c-2.273,0.975-4.849,1.462-7.725,1.462
		c-1.764,0-3.353-0.296-4.769-0.887c-1.415-0.592-2.454-1.357-3.115-2.297c-0.661-0.94-1.12-2.21-1.375-3.811
		c-0.208-1.137-0.313-3.434-0.313-6.892v-16.111h-4.489v-7.797h4.489v-7.343l9.814-5.707v13.05L199.466,253.548L199.466,253.548z"/>
	<path fill="#FFFFFF" d="M202.094,279.962l9.814-1.497c0.418,1.902,1.266,3.346,2.54,4.332c1.275,0.986,3.062,1.479,5.359,1.479
		c2.529,0,4.433-0.465,5.707-1.394c0.859-0.649,1.288-1.519,1.288-2.609c0-0.743-0.232-1.357-0.695-1.845
		c-0.487-0.465-1.579-0.894-3.272-1.288c-7.888-1.74-12.888-3.328-14.999-4.768c-2.924-1.994-4.385-4.768-4.385-8.316
		c0-3.202,1.264-5.895,3.792-8.074c2.529-2.181,6.45-3.271,11.764-3.271c5.057,0,8.816,0.824,11.274,2.471
		c2.458,1.647,4.153,4.084,5.082,7.308l-9.223,1.705c-0.395-1.438-1.143-2.54-2.244-3.305c-1.103-0.766-2.674-1.149-4.716-1.149
		c-2.575,0-4.419,0.36-5.532,1.079c-0.743,0.511-1.114,1.172-1.114,1.983c0,0.696,0.323,1.288,0.974,1.773
		c0.882,0.65,3.926,1.567,9.136,2.751c5.208,1.184,8.845,2.634,10.91,4.35c2.041,1.74,3.062,4.165,3.062,7.272
		c0,3.389-1.415,6.3-4.246,8.735c-2.831,2.437-7.018,3.654-12.563,3.654c-5.033,0-9.02-1.021-11.954-3.062
		C204.919,286.237,202.999,283.466,202.094,279.962z"/>
	<path fill="#FFFFFF" d="M290.541,290.506h-11.205l-4.454-11.588H254.49l-4.212,11.588H239.35l19.871-51.018h10.893L290.541,290.506
		z M271.574,270.322l-7.029-18.933l-6.89,18.933H271.574z"/>
	<path fill="#FFFFFF" d="M294.945,253.548h9.118v5.43c1.183-1.856,2.783-3.363,4.802-4.524c2.019-1.159,4.257-1.739,6.717-1.739
		c4.292,0,7.935,1.683,10.928,5.047c2.993,3.363,4.489,8.051,4.489,14.059c0,6.172-1.509,10.968-4.524,14.391
		c-3.016,3.422-6.67,5.132-10.962,5.132c-2.042,0-3.893-0.404-5.552-1.218c-1.659-0.812-3.405-2.203-5.238-4.176v18.618h-9.778
		L294.945,253.548L294.945,253.548z M304.618,271.4c0,4.153,0.824,7.222,2.472,9.206c1.646,1.983,3.653,2.976,6.021,2.976
		c2.273,0,4.163-0.91,5.672-2.732c1.508-1.82,2.263-4.808,2.263-8.961c0-3.873-0.777-6.752-2.332-8.631s-3.48-2.818-5.777-2.818
		c-2.389,0-4.373,0.922-5.951,2.767C305.407,265.05,304.618,267.782,304.618,271.4z"/>
	<path fill="#FFFFFF" d="M337.768,253.548h9.118v5.43c1.183-1.856,2.783-3.363,4.802-4.524c2.019-1.159,4.258-1.739,6.717-1.739
		c4.293,0,7.935,1.683,10.929,5.047c2.992,3.363,4.488,8.051,4.488,14.059c0,6.172-1.508,10.968-4.523,14.391
		c-3.016,3.422-6.67,5.132-10.963,5.132c-2.041,0-3.893-0.404-5.551-1.218c-1.66-0.812-3.405-2.203-5.238-4.176v18.618h-9.779
		L337.768,253.548L337.768,253.548z M347.442,271.4c0,4.153,0.823,7.222,2.472,9.206c1.647,1.983,3.652,2.976,6.02,2.976
		c2.273,0,4.165-0.91,5.672-2.732c1.509-1.82,2.263-4.808,2.263-8.961c0-3.873-0.777-6.752-2.332-8.631
		c-1.554-1.879-3.48-2.818-5.776-2.818c-2.39,0-4.374,0.922-5.951,2.767C348.231,265.05,347.442,267.782,347.442,271.4z"/>
</g>
</svg>
